<?xml version="1.0" encoding="utf-8"?>
<!-- Generator: Adobe Illustrator 21.0.1, SVG Export Plug-In . SVG Version: 6.00 Build 0)  -->
<!DOCTYPE svg PUBLIC "-//W3C//DTD SVG 1.1//EN" "http://www.w3.org/Graphics/SVG/1.1/DTD/svg11.dtd">
<svg version="1.1" xmlns="http://www.w3.org/2000/svg" xmlns:xlink="http://www.w3.org/1999/xlink" x="0px" y="0px"
	 width="1603.5px" height="294.9px" viewBox="0 0 1603.5 294.9" style="enable-background:new 0 0 1603.5 294.9;"
	 xml:space="preserve">
<style type="text/css">
	.st0{fill:#01363D;}
	.st1{fill:#03363D;}
	.st2{fill:#FFFFFF;}
	.st3{fill:none;stroke:#DDDCDB;stroke-width:2;stroke-linecap:round;stroke-linejoin:round;stroke-miterlimit:10;}
	.st4{fill:#F3F0EE;stroke:#DDDCDB;stroke-width:2;stroke-linecap:round;stroke-linejoin:round;stroke-miterlimit:10;}
	.st5{clip-path:url(#SVGID_6_);fill:#E1E1DD;}
	.st6{opacity:0.41;clip-path:url(#SVGID_6_);}
	.st7{fill:none;stroke:#FFFFFF;stroke-width:3.5;stroke-linecap:round;stroke-linejoin:round;stroke-miterlimit:10;}
	.st8{clip-path:url(#SVGID_6_);}
	.st9{fill:#F1F1F1;stroke:#03363D;stroke-width:3.5;stroke-linecap:round;stroke-linejoin:round;stroke-miterlimit:10;}
	.st10{fill:#FFFFFF;stroke:#03363D;stroke-width:3.5;stroke-linecap:round;stroke-linejoin:round;stroke-miterlimit:10;}
	.st11{fill:none;stroke:#03363D;stroke-width:3.5;stroke-linecap:round;stroke-linejoin:round;stroke-miterlimit:10;}
	.st12{fill:#EB4962;stroke:#03363D;stroke-width:3.5;stroke-linecap:round;stroke-linejoin:round;stroke-miterlimit:10;}
	.st13{fill:#C6C6C6;stroke:#03363D;stroke-width:3.5;stroke-linecap:round;stroke-linejoin:round;stroke-miterlimit:10;}
	.st14{fill:#4F7332;stroke:#03363D;stroke-width:3.5;stroke-miterlimit:10;}
	.st15{fill:#EB4962;}
	.st16{opacity:0.2;}
	.st17{fill:#F4C6D1;}
	.st18{fill:none;stroke:#FFFFFF;stroke-width:2;stroke-miterlimit:10;}
	.st19{clip-path:url(#SVGID_8_);}
	.st20{fill:#434343;}
	.st21{fill:#2F68AF;}
	.st22{opacity:0.52;fill:#ED2A7B;}
	.st23{opacity:0.52;fill:#00ACED;}
	.st24{opacity:0.52;fill:#8AC43F;}
	.st25{opacity:0.52;fill:#F8EB31;}
	.st26{fill:#334443;}
	.st27{opacity:0.52;fill:#00ADEE;}
	.st28{opacity:0.52;fill:#8CC53F;}
	.st29{fill:#39AABC;}
	.st30{fill:none;stroke:#39AABC;stroke-width:2;stroke-miterlimit:10;}
	.st31{fill:none;stroke:#F3F0EE;stroke-miterlimit:10;}
	.st32{fill:none;stroke:#37B8AF;stroke-miterlimit:10;}
	.st33{fill:none;stroke:#03363D;stroke-miterlimit:10;}
	.st34{opacity:0.85;}
	.st35{fill:#F0EEEC;}
	.st36{clip-path:url(#SVGID_14_);}
	.st37{fill:#DBD7D2;}
	.st38{fill:none;stroke:#DBD7D2;stroke-miterlimit:10;}
	.st39{fill:none;stroke:#FFFFFF;stroke-width:3;stroke-miterlimit:10;}
	.st40{fill:#2EA9BB;}
	.st41{fill:#F79940;}
	.st42{fill:#EA4962;}
	.st43{fill:#35B7AE;}
	.st44{fill:#77A340;}
	.st45{fill:none;stroke:#03363D;stroke-width:3;stroke-linecap:round;stroke-linejoin:round;stroke-miterlimit:10;}
	.st46{clip-path:url(#SVGID_16_);fill:none;stroke:#939393;stroke-miterlimit:10;}
	.st47{opacity:0.48;fill:url(#SVGID_17_);}
	.st48{fill:#FFFFFF;stroke:#DDDCDB;stroke-width:2;stroke-linecap:round;stroke-linejoin:round;stroke-miterlimit:10;}
	.st49{fill:none;stroke:#B2B2B2;stroke-width:10;stroke-linecap:round;stroke-linejoin:round;stroke-miterlimit:10;}
	.st50{clip-path:url(#SVGID_19_);}
	.st51{fill:#F3F0EE;stroke:#03363D;stroke-width:3;stroke-linecap:round;stroke-linejoin:round;stroke-miterlimit:10;}
	.st52{fill:#FFFFFF;stroke:#03363D;stroke-width:3;stroke-linecap:round;stroke-linejoin:round;stroke-miterlimit:10;}
	.st53{fill:#EB4962;stroke:#03363D;stroke-width:3;stroke-linecap:round;stroke-linejoin:round;stroke-miterlimit:10;}
	.st54{fill:#F3F0EE;stroke:#EC008C;stroke-width:2.7691;stroke-linecap:round;stroke-linejoin:round;stroke-miterlimit:10;}
	.st55{fill:#03363D;stroke:#03363D;stroke-width:3;stroke-linecap:round;stroke-linejoin:round;stroke-miterlimit:10;}
	.st56{fill:#EB4962;stroke:#F7B6C0;stroke-width:2;stroke-linecap:round;stroke-linejoin:round;stroke-miterlimit:10;}
	.st57{fill:#ACDDE4;stroke:#FFFFFF;stroke-width:3;stroke-miterlimit:10;}
	.st58{fill:#ACDDE4;stroke:#FFFFFF;stroke-width:3;stroke-linecap:round;stroke-linejoin:round;stroke-miterlimit:10;}
	.st59{fill:#EB4962;stroke:#F3F0EE;stroke-width:3;stroke-linecap:round;stroke-linejoin:round;stroke-miterlimit:10;}
	.st60{fill:#EB4962;stroke:#FFFFFF;stroke-width:3;stroke-miterlimit:10;}
	.st61{fill:#FFFFFF;stroke:#03363D;stroke-width:3;stroke-miterlimit:10;}
	.st62{fill:#EB4962;stroke:#FFFFFF;stroke-width:3;stroke-linecap:round;stroke-linejoin:round;stroke-miterlimit:10;}
	.st63{fill:#03363D;stroke:#FFFFFF;stroke-width:3;stroke-linecap:round;stroke-linejoin:round;stroke-miterlimit:10;}
	.st64{fill:#03363D;stroke:#EB4962;stroke-width:2;stroke-linecap:round;stroke-linejoin:round;stroke-miterlimit:10;}
	.st65{fill:#03363D;stroke:#FFFFFF;stroke-width:3;stroke-miterlimit:10;}
	.st66{fill:#F1F1F1;stroke:#4F7332;stroke-width:3;stroke-linecap:round;stroke-linejoin:round;stroke-miterlimit:10;}
	.st67{fill:#FFFFFF;stroke:#4F7332;stroke-width:3;stroke-linecap:round;stroke-linejoin:round;stroke-miterlimit:10;}
	.st68{fill:none;stroke:#4F7332;stroke-width:3;stroke-linecap:round;stroke-linejoin:round;stroke-miterlimit:10;}
	.st69{fill:#9FBA43;stroke:#4F7332;stroke-width:3;stroke-linecap:round;stroke-linejoin:round;stroke-miterlimit:10;}
	.st70{fill:#78A440;stroke:#4F7332;stroke-width:3;stroke-linecap:round;stroke-linejoin:round;stroke-miterlimit:10;}
	.st71{fill:#4F7332;stroke:#4F7332;stroke-miterlimit:10;}
	.st72{fill:#FFA100;stroke:#4F7332;stroke-width:3;stroke-linecap:round;stroke-linejoin:round;stroke-miterlimit:10;}
	.st73{fill:#C6C6C6;stroke:#4F7332;stroke-width:3;stroke-linecap:round;stroke-linejoin:round;stroke-miterlimit:10;}
	.st74{fill:#FFD12A;stroke:#4F7332;stroke-width:3;stroke-linecap:round;stroke-linejoin:round;stroke-miterlimit:10;}
	.st75{fill:none;stroke:#FFFFFF;stroke-miterlimit:10;}
	.st76{clip-path:url(#SVGID_21_);}
	.st77{opacity:0.57;fill:url(#SVGID_24_);}
	.st78{fill:#30AABC;}
	.st79{fill:#00363D;}
	.st80{display:none;}
	.st81{display:inline;fill:#FFFFFF;stroke:#FFD200;stroke-miterlimit:10;}
	.st82{display:inline;}
	.st83{fill:#FF27E6;}
	.st84{fill:none;stroke:#03363D;stroke-linecap:round;stroke-linejoin:round;stroke-miterlimit:10;}
	.st85{display:inline;fill:#FFFFFF;}
</style>
<g id="Layer_14">
</g>
<g id="Layer_1">
	<g>
		<circle class="st1" cx="245.4" cy="78.9" r="22.3"/>
		<circle class="st1" cx="236.9" cy="82.1" r="22.3"/>
		<circle class="st2" cx="236.9" cy="82.1" r="15.1"/>
		<circle class="st15" cx="236.9" cy="82.1" r="5.6"/>
	</g>
	<g>
		<circle class="st1" cx="297.8" cy="78.9" r="22.3"/>
		<circle class="st1" cx="289.3" cy="82.1" r="22.3"/>
		<circle class="st2" cx="289.3" cy="82.1" r="15.1"/>
		<circle class="st15" cx="289.3" cy="82.1" r="5.6"/>
	</g>
	<g>
		<path class="st59" d="M212,90.1h-52.5V85c0-8.8,7.1-16,16-16h20.5c8.8,0,16,7.1,16,16V90.1z"/>
		<path class="st59" d="M191.5,90.1h-11.4V66.8c0-2.4,1.9-4.3,4.3-4.3h2.8c2.4,0,4.3,1.9,4.3,4.3V90.1z"/>
	</g>
	<g>
		<path class="st59" d="M151.2,89.8H98.8v-5.1c0-8.8,7.1-16,16-16h20.5c8.8,0,16,7.1,16,16V89.8z"/>
		<path class="st59" d="M130.7,89.8h-11.4V66.5c0-2.4,1.9-4.3,4.3-4.3h2.8c2.4,0,4.3,1.9,4.3,4.3V89.8z"/>
	</g>
	<g>
		<path class="st60" d="M335.9,77.6v29.1H46V49.8l3.9,0.4l0.3,0c53,26,112.5,40.5,175.5,40.5c36,0,70.9-4.8,104.1-13.7L335.9,77.6z"
			/>
		<polygon class="st60" points="67.2,106.7 46,106.7 28,38.4 27.8,37.5 46,37.5 49.8,50 49.8,50.1 		"/>
	</g>
	<path class="st61" d="M596,93.5h31.3c6.6,0,12-5.4,12-12v0c0-6.6-5.4-12-12-12H596c-6.6,0-12,5.4-12,12v0
		C584,88.1,589.4,93.5,596,93.5z"/>
	<path class="st62" d="M661.6,84.9c-1.9-5.8-8.6-9.3-15.4-8.1c-5.6-13.2-20.4-22.7-37.8-22.7c-7.7,0-17.3,1.4-23.5,6.5
		c-2.2,1.9-3.9,4.5-3.8,7.4c0,2.7,1.5,5.4,3.7,7c4.8,3.7,12,2.7,17.8,2.7c7,0,14,0,21.1,0c3,0,6,0,9.1,0c2.2,0,4.1,1.1,5.1,2.7
		c-0.3,0.9-0.6,1.8-0.7,2.8c-0.6,6.5,5.1,12.1,12.6,12.6c1.2,0.1,2.4,0,3.5-0.2c0.6-1.1,0.9-2.3,1-3.6c0.1-0.7,0-1.4,0-2
		c1.5,0.1,3,0,4.5-0.4c1.2-0.3,2.3-0.7,3.3-1.2C662.1,87.4,662,86.2,661.6,84.9z"/>
	<path class="st63" d="M611.9,96L611.9,96c2.5,0,4.6-2.1,4.6-4.6V55.9c0-2.5-2.1-4.6-4.6-4.6l0,0c-2.5,0-4.6,2.1-4.6,4.6v35.5
		C607.4,93.9,609.4,96,611.9,96z"/>
	<path class="st39" d="M605,78.5c-0.5-0.2-1-0.3-1.5-0.6c-6.1-2.7-9.3-9.6-7.3-16.1c1-3.4,3.3-6,6.1-7.6"/>
	<path class="st39" d="M624,77.9c-1.2-3.1-1.2-6.7,0.2-9.9c1.3-3.1,3.7-5.4,6.5-6.7"/>
	<path class="st39" d="M633.1,77.9c1.1-3.5,3.6-6.5,7.2-8.1c0.4-0.2,0.9-0.4,1.3-0.5"/>
	<path class="st61" d="M678.2,93.5h31.3c6.6,0,12-5.4,12-12v0c0-6.6-5.4-12-12-12h-31.3c-6.6,0-12,5.4-12,12v0
		C666.2,88.1,671.6,93.5,678.2,93.5z"/>
	<path class="st62" d="M743.8,84.9c-1.9-5.8-8.6-9.3-15.4-8.1c-5.6-13.2-20.4-22.7-37.8-22.7c-7.7,0-17.3,1.4-23.5,6.5
		c-2.2,1.9-3.9,4.5-3.8,7.4c0,2.7,1.5,5.4,3.7,7c4.8,3.7,12,2.7,17.8,2.7c7,0,14,0,21.1,0c3,0,6,0,9.1,0c2.2,0,4.1,1.1,5.1,2.7
		c-0.3,0.9-0.6,1.8-0.7,2.8c-0.6,6.5,5.1,12.1,12.6,12.6c1.2,0.1,2.4,0,3.5-0.2c0.6-1.1,0.9-2.3,1-3.6c0.1-0.7,0-1.4,0-2
		c1.5,0.1,3,0,4.5-0.4c1.2-0.3,2.3-0.7,3.3-1.2C744.3,87.4,744.2,86.2,743.8,84.9z"/>
	<path class="st63" d="M694.1,96L694.1,96c2.5,0,4.6-2.1,4.6-4.6V55.9c0-2.5-2.1-4.6-4.6-4.6l0,0c-2.5,0-4.6,2.1-4.6,4.6v35.5
		C689.5,93.9,691.6,96,694.1,96z"/>
	<path class="st39" d="M687.2,78.5c-0.5-0.2-1-0.3-1.5-0.6c-6.1-2.7-9.3-9.6-7.3-16.1c1-3.4,3.3-6,6.1-7.6"/>
	<path class="st39" d="M706.2,77.9c-1.2-3.1-1.2-6.7,0.2-9.9c1.3-3.1,3.7-5.4,6.5-6.7"/>
	<path class="st39" d="M715.3,77.9c1.1-3.5,3.6-6.5,7.2-8.1c0.4-0.2,0.9-0.4,1.3-0.5"/>
	<path class="st57" d="M513.8,94.5h31.3c6.6,0,12-5.4,12-12v0c0-6.6-5.4-12-12-12h-31.3c-6.6,0-12,5.4-12,12v0
		C501.8,89.1,507.2,94.5,513.8,94.5z"/>
	<path class="st62" d="M579.4,85.9c-1.9-5.8-8.6-9.3-15.4-8.1c-5.6-13.2-20.4-22.7-37.8-22.7c-7.7,0-17.3,1.4-23.5,6.5
		c-2.2,1.9-3.9,4.5-3.8,7.4c0,2.7,1.5,5.4,3.7,7c4.8,3.7,12,2.7,17.8,2.7c7,0,14,0,21.1,0c3,0,6,0,9.1,0c2.2,0,4.1,1.1,5.1,2.7
		c-0.3,0.9-0.6,1.8-0.7,2.8c-0.6,6.5,5.1,12.1,12.6,12.6c1.2,0.1,2.4,0,3.5-0.2c0.6-1.1,0.9-2.3,1-3.6c0.1-0.7,0-1.4,0-2
		c1.5,0.1,3,0,4.5-0.4c1.2-0.3,2.3-0.7,3.3-1.2C579.9,88.4,579.8,87.2,579.4,85.9z"/>
	<path class="st63" d="M529.7,97L529.7,97c2.5,0,4.6-2.1,4.6-4.6V56.9c0-2.5-2.1-4.6-4.6-4.6l0,0c-2.5,0-4.6,2.1-4.6,4.6v35.5
		C525.2,94.9,527.2,97,529.7,97z"/>
	<path class="st39" d="M522.8,79.5c-0.5-0.2-1-0.3-1.5-0.6c-6.1-2.7-9.3-9.6-7.3-16.1c1-3.4,3.3-6,6.1-7.6"/>
	<path class="st39" d="M541.8,78.9c-1.2-3.1-1.2-6.7,0.2-9.9c1.3-3.1,3.7-5.4,6.5-6.7"/>
	<path class="st39" d="M550.9,78.9c1.1-3.5,3.6-6.5,7.2-8.1c0.4-0.2,0.9-0.4,1.3-0.5"/>
	<g>
		<path class="st60" d="M747.1,77.6v29.1H457.2V49.8l3.9,0.4l0.3,0c53,26,112.5,40.5,175.5,40.5c36,0,70.9-4.8,104.1-13.7
			L747.1,77.6z"/>
		<polygon class="st60" points="478.5,106.7 457.2,106.7 439.2,38.4 439,37.5 457.2,37.5 461,50 461.1,50.1 		"/>
	</g>
	<g>
		<path class="st64" d="M1131.3,106.8l1.6-4.1c10.8-27.9,4.8-60.2-15.4-82.6l-3.1-3.4c-5.6,3-7.7,10.1-4.9,15.9
			c-1.4,0.6-2.2,2.2-1.7,3.7c0.4,1.5,1.8,2.4,3.3,2.2c0.3,1.6,0.5,3.2,0.6,4.7c-0.1,0-0.3,0-0.4,0.1c-1.6,0.5-2.5,2.2-2,3.8
			c0.4,1.2,1.4,2.1,2.6,2.2c0,1.7-0.2,3.3-0.4,4.9c-0.5-0.1-1-0.1-1.5,0c-1.6,0.5-2.5,2.2-2,3.8c0.3,1.1,1.2,1.9,2.3,2.2
			c-0.6,2.2-1.3,4.3-2.1,6.3c-0.6-0.2-1.2-0.3-1.9-0.1c-1.6,0.5-2.5,2.2-2,3.8c0.2,0.7,0.7,1.3,1.2,1.7
			c-5.8,10.3-15.3,18.4-27.4,21.9"/>
		<ellipse transform="matrix(0.9596 -0.2815 0.2815 0.9596 32.65 317.04)" class="st64" cx="1119.9" cy="44.9" rx="3" ry="3.1"/>
		<ellipse transform="matrix(0.9596 -0.2815 0.2815 0.9596 29.209 317.4024)" class="st64" cx="1119.4" cy="57" rx="3" ry="3.1"/>
		
			<ellipse transform="matrix(0.9596 -0.2815 0.2815 0.9596 24.9811 317.2097)" class="st64" cx="1116.6" cy="71.7" rx="3" ry="3.1"/>
		
			<ellipse transform="matrix(0.9596 -0.2815 0.2815 0.9596 35.7495 315.9292)" class="st64" cx="1117.5" cy="33.5" rx="3" ry="3.1"/>
	</g>
	<g>
		<path class="st64" d="M1009.5,107.9l1.6-4.1c10.8-27.9,4.8-60.2-15.4-82.6l-3.1-3.4c-5.6,3-7.7,10.1-4.9,15.9
			c-1.4,0.6-2.2,2.2-1.7,3.7c0.4,1.5,1.8,2.4,3.3,2.2c0.3,1.6,0.5,3.2,0.6,4.7c-0.1,0-0.3,0-0.4,0.1c-1.6,0.5-2.5,2.2-2,3.8
			c0.4,1.2,1.4,2.1,2.6,2.2c0,1.7-0.2,3.3-0.4,4.9c-0.5-0.1-1-0.1-1.5,0c-1.6,0.5-2.5,2.2-2,3.8c0.3,1.1,1.2,1.9,2.3,2.2
			c-0.6,2.2-1.3,4.3-2.1,6.3c-0.6-0.2-1.2-0.3-1.9-0.1c-1.6,0.5-2.5,2.2-2,3.8c0.2,0.7,0.7,1.3,1.2,1.7
			c-5.8,10.3-15.3,18.4-27.4,21.9"/>
		<ellipse transform="matrix(0.9596 -0.2815 0.2815 0.9596 27.4262 282.7968)" class="st64" cx="998" cy="45.9" rx="3" ry="3.1"/>
		<ellipse transform="matrix(0.9596 -0.2815 0.2815 0.9596 23.9852 283.1592)" class="st64" cx="997.6" cy="58.1" rx="3" ry="3.1"/>
		<ellipse transform="matrix(0.9596 -0.2815 0.2815 0.9596 19.7572 282.9665)" class="st64" cx="994.8" cy="72.7" rx="3" ry="3.1"/>
		<ellipse transform="matrix(0.9596 -0.2815 0.2815 0.9596 30.5257 281.686)" class="st64" cx="995.7" cy="34.6" rx="3" ry="3.1"/>
	</g>
	<g>
		<path class="st64" d="M923.7,95.7l-1.6-4.1c-10.8-27.9-4.8-60.2,15.4-82.6l3.1-3.4c5.6,3,7.7,10.1,4.9,15.9
			c1.4,0.6,2.2,2.2,1.7,3.7c-0.4,1.5-1.8,2.4-3.3,2.2c-0.3,1.6-0.5,3.2-0.6,4.7c0.1,0,0.3,0,0.4,0.1c1.6,0.5,2.5,2.2,2,3.8
			c-0.4,1.2-1.4,2.1-2.6,2.2c0,1.7,0.2,3.3,0.4,4.9c0.5-0.1,1-0.1,1.5,0c1.6,0.5,2.5,2.2,2,3.8c-0.3,1.1-1.2,1.9-2.3,2.2
			c0.6,2.2,1.3,4.3,2.1,6.3c0.6-0.2,1.2-0.3,1.9-0.1c1.6,0.5,2.5,2.2,2,3.8c-0.2,0.7-0.7,1.3-1.2,1.7c5.8,10.3,15.3,18.4,27.4,21.9"
			/>
		
			<ellipse transform="matrix(0.2815 -0.9596 0.9596 0.2815 639.4742 921.6295)" class="st64" cx="935.2" cy="33.8" rx="3.1" ry="3"/>
		<ellipse transform="matrix(0.2815 -0.9596 0.9596 0.2815 628.1375 930.8058)" class="st64" cx="935.6" cy="46" rx="3.1" ry="3"/>
		
			<ellipse transform="matrix(0.2815 -0.9596 0.9596 0.2815 616.1095 943.9826)" class="st64" cx="938.4" cy="60.6" rx="3.1" ry="3"/>
		<ellipse transform="matrix(0.2815 -0.9596 0.9596 0.2815 652.024 915.7017)" class="st64" cx="937.5" cy="22.5" rx="3.1" ry="3"/>
	</g>
	<g>
		<path class="st53" d="M1344,70.7l-15,0c-2.2,0-3.9-1.8-3.9-3.9V65c0-2.2,1.8-3.9,3.9-3.9h15c2.2,0,3.9,1.8,3.9,3.9v1.8
			C1347.9,68.9,1346.2,70.7,1344,70.7z"/>
		<path class="st45" d="M1336.2,52.1L1336.2,52.1l3.7-10.6c0.8-2.2,3.2-3.4,5.4-2.6v0c3.5,1.2,3.9,5.9,0.7,7.7L1336.2,52.1z"/>
		<path class="st45" d="M1335.1,52.1L1335.1,52.1l-3.2-10.7c-0.7-2.3,0.6-4.6,2.8-5.3v0c3.5-1.1,6.6,2.5,5.1,5.9L1335.1,52.1z"/>
		<path class="st45" d="M1335.8,52.1L1335.8,52.1l-3.7-10.6c-0.8-2.2-3.2-3.4-5.4-2.6v0c-3.5,1.2-3.9,5.9-0.7,7.7L1335.8,52.1z"/>
		<path class="st45" d="M1336.4,51L1336.4,51l10.2-4.7c2.1-1,4.7,0,5.6,2.1v0c1.5,3.3-1.6,6.9-5.1,5.8L1336.4,51z"/>
		<path class="st45" d="M1336.5,51L1336.5,51l-10.2-4.7c-2.1-1-4.7,0-5.6,2.1v0c-1.5,3.3,1.6,6.9,5.1,5.8L1336.5,51z"/>
		<path class="st53" d="M1343,60.4h-13c-1.9,0-3.4-1.5-3.4-3.4v-1.5c0-1.9,1.5-3.4,3.4-3.4h13c1.9,0,3.4,1.5,3.4,3.4V57
			C1346.4,58.8,1344.9,60.4,1343,60.4z"/>
		<path class="st53" d="M1345,81.8h-17c-2.5,0-4.5-2-4.5-4.5v-2c0-2.5,2-4.5,4.5-4.5h17c2.5,0,4.5,2,4.5,4.5v2
			C1349.5,79.8,1347.5,81.8,1345,81.8z"/>
		<path class="st53" d="M1348.8,96.9h-24.6c-2.6,0-4.7-2.1-4.7-4.7v-4.9c0-2.6,2.1-4.8,4.8-4.8h24.6c2.6,0,4.8,2.1,4.8,4.8v4.9
			C1353.5,94.8,1351.4,96.9,1348.8,96.9z"/>
	</g>
	<g>
		<path class="st53" d="M1428.2,74.6h-15c-2.2,0-3.9-1.8-3.9-3.9v-1.8c0-2.2,1.8-3.9,3.9-3.9h15c2.2,0,3.9,1.8,3.9,3.9v1.8
			C1432.1,72.8,1430.3,74.6,1428.2,74.6z"/>
		<path class="st45" d="M1420.3,56L1420.3,56l3.7-10.6c0.8-2.2,3.2-3.4,5.4-2.6v0c3.5,1.2,3.9,5.9,0.7,7.7L1420.3,56z"/>
		<path class="st45" d="M1419.3,56L1419.3,56l-3.2-10.7c-0.7-2.3,0.6-4.6,2.8-5.3v0c3.5-1.1,6.6,2.5,5.1,5.9L1419.3,56z"/>
		<path class="st45" d="M1419.9,56L1419.9,56l-3.7-10.6c-0.8-2.2-3.2-3.4-5.4-2.6v0c-3.5,1.2-3.9,5.9-0.7,7.7L1419.9,56z"/>
		<path class="st45" d="M1420.6,54.9L1420.6,54.9l10.2-4.7c2.1-1,4.7,0,5.6,2.1v0c1.5,3.3-1.6,6.9-5.1,5.8L1420.6,54.9z"/>
		<path class="st45" d="M1420.7,54.9L1420.7,54.9l-10.2-4.7c-2.1-1-4.7,0-5.6,2.1v0c-1.5,3.3,1.6,6.9,5.1,5.8L1420.7,54.9z"/>
		<path class="st53" d="M1427.2,64.3h-13c-1.9,0-3.4-1.5-3.4-3.4v-1.5c0-1.9,1.5-3.4,3.4-3.4h13c1.9,0,3.4,1.5,3.4,3.4v1.5
			C1430.6,62.8,1429,64.3,1427.2,64.3z"/>
		<path class="st53" d="M1429.2,85.8h-17c-2.5,0-4.5-2-4.5-4.5v-2c0-2.5,2-4.5,4.5-4.5h17c2.5,0,4.5,2,4.5,4.5v2
			C1433.6,83.8,1431.6,85.8,1429.2,85.8z"/>
		<path class="st53" d="M1433,100.9h-24.6c-2.6,0-4.7-2.1-4.7-4.7v-4.9c0-2.6,2.1-4.7,4.8-4.7h24.6c2.6,0,4.8,2.1,4.8,4.7v4.9
			C1437.7,98.7,1435.6,100.9,1433,100.9z"/>
	</g>
	<circle class="st1" cx="1476.4" cy="78.9" r="22.3"/>
	<circle class="st1" cx="1467.9" cy="82.1" r="22.3"/>
	<circle class="st2" cx="1467.9" cy="82.1" r="15.1"/>
	<circle class="st15" cx="1467.9" cy="82.1" r="5.6"/>
	<circle class="st1" cx="1528.8" cy="78.9" r="22.3"/>
	<circle class="st1" cx="1520.3" cy="82.1" r="22.3"/>
	<circle class="st2" cx="1520.3" cy="82.1" r="15.1"/>
	<circle class="st15" cx="1520.3" cy="82.1" r="5.6"/>
	<g>
		<path class="st53" d="M1383.3,74.6h-15c-2.2,0-3.9-1.8-3.9-3.9v-1.8c0-2.2,1.8-3.9,3.9-3.9h15c2.2,0,3.9,1.8,3.9,3.9v1.8
			C1387.2,72.8,1385.4,74.6,1383.3,74.6z"/>
		<path class="st45" d="M1375.4,56L1375.4,56l3.7-10.6c0.8-2.2,3.2-3.4,5.4-2.6v0c3.5,1.2,3.9,5.9,0.7,7.7L1375.4,56z"/>
		<path class="st45" d="M1374.4,56L1374.4,56l-3.2-10.7c-0.7-2.3,0.6-4.6,2.8-5.3v0c3.5-1.1,6.6,2.5,5.1,5.9L1374.4,56z"/>
		<path class="st45" d="M1375,56L1375,56l-3.7-10.6c-0.8-2.2-3.2-3.4-5.4-2.6v0c-3.5,1.2-3.9,5.9-0.7,7.7L1375,56z"/>
		<path class="st45" d="M1375.7,54.9L1375.7,54.9l10.2-4.7c2.1-1,4.7,0,5.6,2.1v0c1.5,3.3-1.6,6.9-5.1,5.8L1375.7,54.9z"/>
		<path class="st45" d="M1375.8,54.9L1375.8,54.9l-10.2-4.7c-2.1-1-4.7,0-5.6,2.1v0c-1.5,3.3,1.6,6.9,5.1,5.8L1375.8,54.9z"/>
		<path class="st53" d="M1382.3,64.3h-13c-1.9,0-3.4-1.5-3.4-3.4v-1.5c0-1.9,1.5-3.4,3.4-3.4h13c1.9,0,3.4,1.5,3.4,3.4v1.5
			C1385.7,62.8,1384.1,64.3,1382.3,64.3z"/>
		<path class="st53" d="M1384.3,85.8h-17c-2.5,0-4.5-2-4.5-4.5v-2c0-2.5,2-4.5,4.5-4.5h17c2.5,0,4.5,2,4.5,4.5v2
			C1388.7,83.8,1386.7,85.8,1384.3,85.8z"/>
		<path class="st53" d="M1388.1,100.9h-24.6c-2.6,0-4.8-2.1-4.8-4.7v-4.9c0-2.6,2.1-4.7,4.8-4.7h24.6c2.6,0,4.8,2.1,4.8,4.7v4.9
			C1392.8,98.7,1390.7,100.9,1388.1,100.9z"/>
	</g>
	<rect x="1353.8" y="81.6" class="st15" width="12.6" height="18.2"/>
	<g>
		<path class="st60" d="M1582.5,78.5v29.1h-289.9V50.7l3.9,0.4l0.3,0c53,26,112.5,40.5,175.5,40.5c36,0,70.9-4.8,104.1-13.7
			L1582.5,78.5z"/>
		<polygon class="st60" points="1313.8,107.6 1292.6,107.6 1274.6,39.4 1274.4,38.5 1292.6,38.5 1296.4,50.9 1296.4,51.1 		"/>
	</g>
	<rect x="-1.3" y="107.1" class="st65" width="1604.8" height="238.7"/>
	<rect x="-3.5" y="107.9" class="st1" width="1609.5" height="282.8"/>
	
		<ellipse transform="matrix(0.2815 -0.9596 0.9596 0.2815 711.9188 1045.631)" class="st64" cx="1054.2" cy="47.4" rx="3.1" ry="3"/>
	
		<ellipse transform="matrix(0.2815 -0.9596 0.9596 0.2815 700.5821 1054.8075)" class="st64" cx="1054.6" cy="59.6" rx="3.1" ry="3"/>
	
		<ellipse transform="matrix(0.2815 -0.9596 0.9596 0.2815 688.5541 1067.9841)" class="st64" cx="1057.4" cy="74.2" rx="3.1" ry="3"/>
	
		<ellipse transform="matrix(0.2815 -0.9596 0.9596 0.2815 724.4687 1039.7034)" class="st64" cx="1056.5" cy="36.1" rx="3.1" ry="3"/>
	<polyline class="st60" points="-3.5,255.8 294.6,255.8 319.3,255.8 341.4,255.8 593.8,255.8 1603.5,255.8 	"/>
	<path class="st65" d="M507.3,161.9v29.3H311.1v-29.3h-21.6v164.9h239V161.9H507.3z M507.3,292.3H311.1V263h196.2V292.3z"/>
	<polygon class="st65" points="192.6,249.8 192.6,249.8 225.1,165.8 234.4,169.4 	"/>
	<path class="st65" d="M203.4,247.6c1.1-2.7,1.8-5.7,1.8-8.8c0-3.3-0.7-6.5-2-9.3c0-0.1-0.1-0.1-0.1-0.2c-0.4-0.9-0.9-1.8-1.5-2.7
		c-4-6.3-11.1-10.5-19.1-10.5c-9.1,0-17,5.4-20.6,13.2c-1.3,2.9-2.1,6.1-2.1,9.5c0,3.7,0.9,7.1,2.4,10.2"/>
	<path class="st65" d="M210.9,229.2c0,8.2-3.9,16.3-11.3,21.6c-12.6,9.2-30.7,6.9-40.3-5c-4-5-6-10.8-6-16.6H210.9z"/>
	<path class="st65" d="M1296.8,162.9v29.3h-196.2v-29.3h-21.6v164.9h239V162.9H1296.8z M1296.8,293.2h-196.2V264h196.2V293.2z"/>
	<path class="st65" d="M1442,258.2h-18c-7.5,0-13.2-7-11.5-14.3l5.9-26.8l4.9-22.1c0.8-3.5,0.8-7.2,0-10.8l-1.4-6.1h22.1l-1.4,6.1
		c-0.8,3.5-0.8,7.2,0,10.8l4.7,21.1l6.1,27.7C1455.1,251.2,1449.5,258.2,1442,258.2z"/>
	<polygon class="st65" points="1454.5,162.7 1449,162.7 1438,162.7 1416.1,162.7 1421.2,181.4 1445.2,181.4 1446.5,175.2 	"/>
	<rect x="652.3" y="240.9" class="st65" width="59.8" height="14.3"/>
	<rect x="905.8" y="240.9" class="st65" width="59.8" height="14.3"/>
	<rect x="635.2" y="229.5" class="st65" width="347.5" height="14.7"/>
	<rect x="1511" y="240.9" class="st65" width="59.8" height="14.3"/>
	<rect x="1493.9" y="229.5" class="st65" width="181" height="14.7"/>
	<rect x="47" y="240.9" class="st65" width="59.8" height="14.3"/>
	<rect x="-65.7" y="229.5" class="st65" width="189.6" height="14.7"/>
	<g>
		<path class="st64" d="M1034,103.1l-1.6-4.1c-10.8-27.9-4.8-60.2,15.4-82.6l3.1-3.4c5.6,3,7.7,10.1,4.9,15.9
			c1.4,0.6,2.2,2.2,1.7,3.7c-0.4,1.5-1.8,2.4-3.3,2.2c-0.3,1.6-0.5,3.2-0.6,4.7c0.1,0,0.3,0,0.4,0.1c1.6,0.5,2.5,2.2,2,3.8
			c-0.4,1.2-1.4,2.1-2.6,2.2c0,1.7,0.2,3.3,0.4,4.9c0.5-0.1,1-0.1,1.5,0c1.6,0.5,2.5,2.2,2,3.8c-0.3,1.1-1.2,1.9-2.3,2.2
			c0.6,2.2,1.3,4.3,2.1,6.3c0.6-0.2,1.2-0.3,1.9-0.1c1.6,0.5,2.5,2.2,2,3.8c-0.2,0.7-0.7,1.3-1.2,1.7c5.8,10.3,15.3,18.4,27.4,21.9"
			/>
		
			<ellipse transform="matrix(0.2815 -0.9596 0.9596 0.2815 711.6695 1032.8503)" class="st64" cx="1045.5" cy="41.2" rx="3.1" ry="3"/>
		
			<ellipse transform="matrix(0.2815 -0.9596 0.9596 0.2815 700.3328 1042.0267)" class="st64" cx="1046" cy="53.4" rx="3.1" ry="3"/>
		
			<ellipse transform="matrix(0.2815 -0.9596 0.9596 0.2815 688.3048 1055.2035)" class="st64" cx="1048.8" cy="68" rx="3.1" ry="3"/>
		
			<ellipse transform="matrix(0.2815 -0.9596 0.9596 0.2815 724.2194 1026.9226)" class="st64" cx="1047.8" cy="29.9" rx="3.1" ry="3"/>
	</g>
	<g>
		<path class="st60" d="M1168.2,77.6v29.1H878.3V49.8l3.9,0.4l0.3,0c53,26,112.5,40.5,175.5,40.5c36,0,70.9-4.8,104.1-13.7
			L1168.2,77.6z"/>
		<polygon class="st60" points="899.6,106.7 878.3,106.7 860.3,38.4 860.1,37.5 878.3,37.5 882.1,50 882.2,50.1 		"/>
	</g>
	<path class="st65" d="M936.8,186.1c0-9.3,7.5-16.8,16.8-16.8c9.3,0,16.8,7.5,16.8,16.8"/>
	<path class="st65" d="M944.5,186.1c0-5,4.1-9,9-9c5,0,9,4.1,9,9"/>
	<path class="st65" d="M949.6,199.4c0-9.3,7.5-16.8,16.8-16.8c9.3,0,16.8,7.5,16.8,16.8"/>
	<path class="st65" d="M957.4,199.4c0-5,4.1-9,9-9c5,0,9,4.1,9,9"/>
	<circle class="st65" cx="940" cy="198.7" r="16.8"/>
	<circle class="st65" cx="940" cy="198.7" r="9"/>
	<path class="st65" d="M953.6,229c-16.8,0-30.4-13.6-30.4-30.4H984C984,215.4,970.4,229,953.6,229"/>
	<polyline class="st39" points="1624,293.2 1603.5,293.2 1596.7,293.2 8.9,293.2 -1.3,293.2 -32.2,293.2 	"/>
	<line class="st39" x1="1617.8" y1="255.8" x2="1601.2" y2="255.8"/>
</g>
<g id="Layer_3">
</g>
<g id="Layer_3_copy">
</g>
<g id="Layer_2">
</g>
<g id="Layer_11">
</g>
<g id="Layer_13">
</g>
<g id="NOTES" class="st80">
</g>
</svg>
