<?xml version="1.0" encoding="utf-8"?>
<!-- Generator: Adobe Illustrator 21.0.1, SVG Export Plug-In . SVG Version: 6.00 Build 0)  -->
<!DOCTYPE svg PUBLIC "-//W3C//DTD SVG 1.1//EN" "http://www.w3.org/Graphics/SVG/1.1/DTD/svg11.dtd">
<svg version="1.1" xmlns="http://www.w3.org/2000/svg" xmlns:xlink="http://www.w3.org/1999/xlink" x="0px" y="0px"
	 viewBox="0 0 1366.6 386" style="enable-background:new 0 0 1366.6 386;" xml:space="preserve">
<style type="text/css">
	.st0{fill:#01363D;}
	.st1{fill:#03363D;}
	.st2{fill:#FFFFFF;}
	.st3{fill:none;stroke:#DDDCDB;stroke-width:2;stroke-linecap:round;stroke-linejoin:round;stroke-miterlimit:10;}
	.st4{fill:#F3F0EE;stroke:#DDDCDB;stroke-width:2;stroke-linecap:round;stroke-linejoin:round;stroke-miterlimit:10;}
	.st5{clip-path:url(#SVGID_6_);fill:#E1E1DD;}
	.st6{opacity:0.41;clip-path:url(#SVGID_6_);}
	.st7{fill:none;stroke:#FFFFFF;stroke-width:3.5;stroke-linecap:round;stroke-linejoin:round;stroke-miterlimit:10;}
	.st8{clip-path:url(#SVGID_6_);}
	.st9{fill:#F1F1F1;stroke:#03363D;stroke-width:3.5;stroke-linecap:round;stroke-linejoin:round;stroke-miterlimit:10;}
	.st10{fill:#FFFFFF;stroke:#03363D;stroke-width:3.5;stroke-linecap:round;stroke-linejoin:round;stroke-miterlimit:10;}
	.st11{fill:none;stroke:#03363D;stroke-width:3.5;stroke-linecap:round;stroke-linejoin:round;stroke-miterlimit:10;}
	.st12{fill:#EB4962;stroke:#03363D;stroke-width:3.5;stroke-linecap:round;stroke-linejoin:round;stroke-miterlimit:10;}
	.st13{fill:#C6C6C6;stroke:#03363D;stroke-width:3.5;stroke-linecap:round;stroke-linejoin:round;stroke-miterlimit:10;}
	.st14{fill:#4F7332;stroke:#03363D;stroke-width:3.5;stroke-miterlimit:10;}
	.st15{fill:#EB4962;}
	.st16{opacity:0.2;}
	.st17{fill:#F4C6D1;}
	.st18{fill:none;stroke:#FFFFFF;stroke-width:2;stroke-miterlimit:10;}
	.st19{clip-path:url(#SVGID_8_);}
	.st20{fill:#434343;}
	.st21{fill:#2F68AF;}
	.st22{opacity:0.52;fill:#ED2A7B;}
	.st23{opacity:0.52;fill:#00ACED;}
	.st24{opacity:0.52;fill:#8AC43F;}
	.st25{opacity:0.52;fill:#F8EB31;}
	.st26{fill:#334443;}
	.st27{opacity:0.52;fill:#00ADEE;}
	.st28{opacity:0.52;fill:#8CC53F;}
	.st29{fill:#39AABC;}
	.st30{fill:none;stroke:#39AABC;stroke-width:2;stroke-miterlimit:10;}
	.st31{fill:none;stroke:#F3F0EE;stroke-miterlimit:10;}
	.st32{fill:none;stroke:#37B8AF;stroke-miterlimit:10;}
	.st33{fill:none;stroke:#03363D;stroke-miterlimit:10;}
	.st34{opacity:0.85;}
	.st35{fill:none;}
	.st36{font-family:'SharpSansNo1-Semibold';}
	.st37{font-size:45px;}
	.st38{font-family:'MyriadPro-Regular';}
	.st39{font-family:'DINNextLTPro-Regular';}
	.st40{font-size:21px;}
	.st41{fill:#F0EEEC;}
	.st42{clip-path:url(#SVGID_14_);}
	.st43{fill:#DBD7D2;}
	.st44{fill:none;stroke:#DBD7D2;stroke-miterlimit:10;}
	.st45{fill:none;stroke:#FFFFFF;stroke-width:3;stroke-miterlimit:10;}
	.st46{fill:#2EA9BB;}
	.st47{fill:#F79940;}
	.st48{fill:#EA4962;}
	.st49{fill:#35B7AE;}
	.st50{fill:#77A340;}
	.st51{fill:none;stroke:#03363D;stroke-width:3;stroke-linecap:round;stroke-linejoin:round;stroke-miterlimit:10;}
	.st52{opacity:0.48;fill:url(#SVGID_15_);}
	.st53{fill:#FFFFFF;stroke:#DDDCDB;stroke-width:2;stroke-linecap:round;stroke-linejoin:round;stroke-miterlimit:10;}
	.st54{fill:none;stroke:#B2B2B2;stroke-width:10;stroke-linecap:round;stroke-linejoin:round;stroke-miterlimit:10;}
	.st55{clip-path:url(#SVGID_17_);}
	.st56{fill:#F3F0EE;stroke:#03363D;stroke-width:3;stroke-linecap:round;stroke-linejoin:round;stroke-miterlimit:10;}
	.st57{fill:#FFFFFF;stroke:#03363D;stroke-width:3;stroke-linecap:round;stroke-linejoin:round;stroke-miterlimit:10;}
	.st58{fill:#EB4962;stroke:#03363D;stroke-width:3;stroke-linecap:round;stroke-linejoin:round;stroke-miterlimit:10;}
	.st59{fill:#F3F0EE;stroke:#EC008C;stroke-width:2.7691;stroke-linecap:round;stroke-linejoin:round;stroke-miterlimit:10;}
	.st60{fill:#03363D;stroke:#03363D;stroke-width:3;stroke-linecap:round;stroke-linejoin:round;stroke-miterlimit:10;}
	.st61{fill:#EB4962;stroke:#F7B6C0;stroke-width:2;stroke-linecap:round;stroke-linejoin:round;stroke-miterlimit:10;}
	.st62{fill:#ACDDE4;stroke:#FFFFFF;stroke-width:3;stroke-miterlimit:10;}
	.st63{fill:#F3F0EE;stroke:#03363D;stroke-width:3;stroke-miterlimit:10;}
	.st64{fill:none;stroke:#03363D;stroke-width:3;stroke-miterlimit:10;}
	.st65{opacity:0.3;fill:#FFE3E7;stroke:#FFFFFF;stroke-width:3;stroke-linecap:round;stroke-linejoin:round;stroke-miterlimit:10;}
	.st66{fill:#ACDDE4;stroke:#FFFFFF;stroke-width:3;stroke-linecap:round;stroke-linejoin:round;stroke-miterlimit:10;}
	.st67{fill:#EB4962;stroke:#F3F0EE;stroke-width:3;stroke-linecap:round;stroke-linejoin:round;stroke-miterlimit:10;}
	.st68{fill:#EB4962;stroke:#FFFFFF;stroke-width:3;stroke-miterlimit:10;}
	.st69{fill:#FFFFFF;stroke:#03363D;stroke-width:3;stroke-miterlimit:10;}
	.st70{fill:#EB4962;stroke:#FFFFFF;stroke-width:3;stroke-linecap:round;stroke-linejoin:round;stroke-miterlimit:10;}
	.st71{fill:#03363D;stroke:#FFFFFF;stroke-width:3;stroke-linecap:round;stroke-linejoin:round;stroke-miterlimit:10;}
	.st72{fill:#03363D;stroke:#EB4962;stroke-width:2;stroke-linecap:round;stroke-linejoin:round;stroke-miterlimit:10;}
	.st73{fill:#03363D;stroke:#FFFFFF;stroke-width:3;stroke-miterlimit:10;}
	.st74{fill:#EEF8FA;stroke:#FFFFFF;stroke-width:3;stroke-miterlimit:10;}
	.st75{clip-path:url(#SVGID_19_);}
	.st76{fill:#F1F1F1;stroke:#4F7332;stroke-width:3;stroke-linecap:round;stroke-linejoin:round;stroke-miterlimit:10;}
	.st77{fill:#FFFFFF;stroke:#4F7332;stroke-width:3;stroke-linecap:round;stroke-linejoin:round;stroke-miterlimit:10;}
	.st78{fill:none;stroke:#4F7332;stroke-width:3;stroke-linecap:round;stroke-linejoin:round;stroke-miterlimit:10;}
	.st79{fill:#9FBA43;stroke:#4F7332;stroke-width:3;stroke-linecap:round;stroke-linejoin:round;stroke-miterlimit:10;}
	.st80{fill:#78A440;stroke:#4F7332;stroke-width:3;stroke-linecap:round;stroke-linejoin:round;stroke-miterlimit:10;}
	.st81{fill:#4F7332;stroke:#4F7332;stroke-miterlimit:10;}
	.st82{fill:#FFA100;stroke:#4F7332;stroke-width:3;stroke-linecap:round;stroke-linejoin:round;stroke-miterlimit:10;}
	.st83{fill:#C6C6C6;stroke:#4F7332;stroke-width:3;stroke-linecap:round;stroke-linejoin:round;stroke-miterlimit:10;}
	.st84{fill:#FFD12A;stroke:#4F7332;stroke-width:3;stroke-linecap:round;stroke-linejoin:round;stroke-miterlimit:10;}
	.st85{fill:none;stroke:#FFFFFF;stroke-miterlimit:10;}
	.st86{clip-path:url(#SVGID_21_);}
	.st87{opacity:0.57;fill:url(#SVGID_24_);}
	.st88{fill:#30AABC;}
	.st89{fill:#00363D;}
	.st90{display:none;}
	.st91{display:inline;fill:#FFFFFF;stroke:#FFD200;stroke-miterlimit:10;}
	.st92{display:inline;}
	.st93{fill:#FF27E6;}
	.st94{fill:none;stroke:#03363D;stroke-linecap:round;stroke-linejoin:round;stroke-miterlimit:10;}
	.st95{display:inline;fill:#FFFFFF;}
	.st96{font-family:'SharpSansNo1-Medium';}
	.st97{font-size:16px;}
</style>
<g id="Layer_14">
</g>
<g id="Layer_1">
	<g>
		<g>
			<path class="st15" d="M1004,198.2c-5.7,9.8-16.3,16.4-28.5,16.4c-12.2,0-22.8-6.6-28.5-16.4c5.7-9.8,16.4-16.4,28.5-16.4
				C987.7,181.8,998.3,188.4,1004,198.2z"/>
			<path class="st15" d="M1004,198.2c-5.7,9.8-16.3,16.4-28.5,16.4c-12.2,0-22.8-6.6-28.5-16.4c5.7-9.8,16.4-16.4,28.5-16.4
				C987.7,181.8,998.3,188.4,1004,198.2z"/>
			<polygon class="st15" points="1003.4,198.2 1022.3,209.1 1022.3,187.2 			"/>
			<circle class="st2" cx="965.2" cy="195" r="5.1"/>
			<g>
				<path class="st15" d="M1089.6,198.2c-5.7,9.8-16.3,16.4-28.5,16.4c-12.2,0-22.8-6.6-28.5-16.4c5.7-9.8,16.4-16.4,28.5-16.4
					C1073.3,181.8,1083.9,188.4,1089.6,198.2z"/>
				<path class="st15" d="M1089.6,198.2c-5.7,9.8-16.3,16.4-28.5,16.4c-12.2,0-22.8-6.6-28.5-16.4c5.7-9.8,16.4-16.4,28.5-16.4
					C1073.3,181.8,1083.9,188.4,1089.6,198.2z"/>
				<polygon class="st15" points="1089,198.2 1107.9,209.1 1107.9,187.2 				"/>
				<circle class="st2" cx="1050.8" cy="195" r="5.1"/>
			</g>
		</g>
		<g>
			<path class="st15" d="M1333.4,175c-30.6,22-68.1,35-108.6,35s-78-13-108.6-35c30.6-22,68.1-35,108.6-35S1302.9,152.9,1333.4,175z
				"/>
			<path class="st15" d="M1333.4,175c-30.6,22-68.1,35-108.6,35s-78-13-108.6-35c30.6-22,68.1-35,108.6-35S1302.9,152.9,1333.4,175z
				"/>
			<polygon class="st15" points="1331.6,174.9 1359.9,191.2 1359.9,158.5 			"/>
			<circle class="st2" cx="1152.9" cy="173.5" r="5.1"/>
		</g>
		<g>
			<path class="st15" d="M730.1,175c-30.6,22-68.1,35-108.6,35s-78-13-108.6-35c30.6-22,68.1-35,108.6-35S699.5,152.9,730.1,175z"/>
			<path class="st15" d="M730.1,175c-30.6,22-68.1,35-108.6,35s-78-13-108.6-35c30.6-22,68.1-35,108.6-35S699.5,152.9,730.1,175z"/>
			<polygon class="st15" points="728.2,174.9 756.5,191.2 756.5,158.5 			"/>
			<circle class="st2" cx="549.6" cy="173.5" r="5.1"/>
		</g>
		<g>
			<circle class="st15" cx="901.7" cy="142.1" r="46.8"/>
			<path class="st15" d="M974,114.8c0,0,0.1,0,0.2,0.1c15.1,15.1,15,39.4,0,54.5l-27.4-27.4L974,114.8z"/>
			<circle class="st2" cx="889.4" cy="130.8" r="5.1"/>
		</g>
		<g>
			<path class="st15" d="M1056.6,157.9c-5.7,9.8-16.3,16.4-28.5,16.4c-12.2,0-22.8-6.6-28.5-16.4c5.7-9.8,16.4-16.4,28.5-16.4
				C1040.3,141.5,1050.9,148.1,1056.6,157.9z"/>
			<path class="st15" d="M1056.6,157.9c-5.7,9.8-16.3,16.4-28.5,16.4c-12.2,0-22.8-6.6-28.5-16.4c5.7-9.8,16.4-16.4,28.5-16.4
				C1040.3,141.5,1050.9,148.1,1056.6,157.9z"/>
			<polygon class="st15" points="1056,157.8 1074.9,168.7 1074.9,146.9 			"/>
			<circle class="st2" cx="1017.8" cy="154.6" r="5.1"/>
		</g>
		<g>
			<path class="st15" d="M941.6,59.9c-5.7,9.8-16.3,16.4-28.5,16.4c-12.2,0-22.8-6.6-28.5-16.4c5.7-9.8,16.4-16.4,28.5-16.4
				C925.3,43.5,935.9,50.1,941.6,59.9z"/>
			<path class="st2" d="M941.6,59.9c-5.7,9.8-16.3,16.4-28.5,16.4c-12.2,0-22.8-6.6-28.5-16.4c5.7-9.8,16.4-16.4,28.5-16.4
				C925.3,43.5,935.9,50.1,941.6,59.9z"/>
			<polygon class="st2" points="941,59.8 959.9,70.7 959.9,48.9 			"/>
			<circle class="st15" cx="902.8" cy="56.6" r="5.1"/>
		</g>
		<g>
			<path class="st15" d="M1020.6,24.9c-5.7,9.8-16.3,16.4-28.5,16.4c-12.2,0-22.8-6.6-28.5-16.4c5.7-9.8,16.4-16.4,28.5-16.4
				C1004.3,8.5,1014.9,15.1,1020.6,24.9z"/>
			<path class="st2" d="M1020.6,24.9c-5.7,9.8-16.3,16.4-28.5,16.4c-12.2,0-22.8-6.6-28.5-16.4c5.7-9.8,16.4-16.4,28.5-16.4
				C1004.3,8.5,1014.9,15.1,1020.6,24.9z"/>
			<polygon class="st2" points="1020,24.8 1038.9,35.7 1038.9,13.9 			"/>
			<circle class="st15" cx="981.8" cy="21.6" r="5.1"/>
		</g>
		<g>
			<path class="st2" d="M1101.6,88.9c-5.7,9.8-16.3,16.4-28.5,16.4c-12.2,0-22.8-6.6-28.5-16.4c5.7-9.8,16.4-16.4,28.5-16.4
				C1085.3,72.5,1095.9,79.1,1101.6,88.9z"/>
			<polygon class="st2" points="1101,88.8 1119.9,99.7 1119.9,77.9 			"/>
			<circle class="st15" cx="1062.8" cy="85.6" r="5.1"/>
		</g>
		<g>
			<path class="st15" d="M835.3,198.6c-5.7,9.8-16.3,16.4-28.5,16.4c-12.2,0-22.8-6.6-28.5-16.4c5.7-9.8,16.4-16.4,28.5-16.4
				C818.9,182.1,829.6,188.7,835.3,198.6z"/>
			<path class="st15" d="M835.3,198.6c-5.7,9.8-16.3,16.4-28.5,16.4c-12.2,0-22.8-6.6-28.5-16.4c5.7-9.8,16.4-16.4,28.5-16.4
				C818.9,182.1,829.6,188.7,835.3,198.6z"/>
			<polygon class="st15" points="834.7,198.5 853.6,209.4 853.6,187.6 			"/>
			<circle class="st2" cx="796.5" cy="195.3" r="5.1"/>
		</g>
		<g>
			<path class="st15" d="M817.3,144.6c-5.7,9.8-16.3,16.4-28.5,16.4c-12.2,0-22.8-6.6-28.5-16.4c5.7-9.8,16.4-16.4,28.5-16.4
				C800.9,128.1,811.6,134.7,817.3,144.6z"/>
			<path class="st15" d="M817.3,144.6c-5.7,9.8-16.3,16.4-28.5,16.4c-12.2,0-22.8-6.6-28.5-16.4c5.7-9.8,16.4-16.4,28.5-16.4
				C800.9,128.1,811.6,134.7,817.3,144.6z"/>
			<polygon class="st15" points="816.7,144.5 835.6,155.4 835.6,133.6 			"/>
			<circle class="st2" cx="778.5" cy="141.3" r="5.1"/>
		</g>
	</g>
	<g class="st16">
		<g>
			<path class="st17" d="M363.8,349.2c5.7,9.8,16.3,16.4,28.5,16.4c12.2,0,22.8-6.6,28.5-16.4c-5.7-9.8-16.4-16.4-28.5-16.4
				C380.1,332.8,369.5,339.4,363.8,349.2z"/>
			<path class="st17" d="M363.8,349.2c5.7,9.8,16.3,16.4,28.5,16.4c12.2,0,22.8-6.6,28.5-16.4c-5.7-9.8-16.4-16.4-28.5-16.4
				C380.1,332.8,369.5,339.4,363.8,349.2z"/>
			<polygon class="st17" points="364.4,349.2 345.5,360.1 345.5,338.2 			"/>
			<circle class="st2" cx="402.6" cy="346" r="5.1"/>
			<g>
				<path class="st17" d="M278.2,349.2c5.7,9.8,16.3,16.4,28.5,16.4c12.2,0,22.8-6.6,28.5-16.4c-5.7-9.8-16.4-16.4-28.5-16.4
					C294.5,332.8,283.9,339.4,278.2,349.2z"/>
				<path class="st17" d="M278.2,349.2c5.7,9.8,16.3,16.4,28.5,16.4c12.2,0,22.8-6.6,28.5-16.4c-5.7-9.8-16.4-16.4-28.5-16.4
					C294.5,332.8,283.9,339.4,278.2,349.2z"/>
				<polygon class="st17" points="278.8,349.2 259.9,360.1 259.9,338.2 				"/>
				<circle class="st2" cx="317" cy="346" r="5.1"/>
			</g>
		</g>
		<g>
			<path class="st17" d="M34.3,326c30.6,22,68.1,35,108.6,35s78-13,108.6-35c-30.6-22-68.1-35-108.6-35S64.9,303.9,34.3,326z"/>
			<path class="st17" d="M34.3,326c30.6,22,68.1,35,108.6,35s78-13,108.6-35c-30.6-22-68.1-35-108.6-35S64.9,303.9,34.3,326z"/>
			<polygon class="st17" points="36.2,325.9 7.9,342.2 7.9,309.5 			"/>
			<circle class="st2" cx="214.9" cy="324.5" r="5.1"/>
		</g>
		<g>
			<path class="st17" d="M637.7,326c30.6,22,68.1,35,108.6,35s78-13,108.6-35c-30.6-22-68.1-35-108.6-35S668.2,303.9,637.7,326z"/>
			<path class="st17" d="M637.7,326c30.6,22,68.1,35,108.6,35s78-13,108.6-35c-30.6-22-68.1-35-108.6-35S668.2,303.9,637.7,326z"/>
			<polygon class="st17" points="639.6,325.9 611.2,342.2 611.2,309.5 			"/>
			<circle class="st2" cx="818.2" cy="324.5" r="5.1"/>
		</g>
		<g>
			<circle class="st17" cx="466.1" cy="293.1" r="46.8"/>
			<path class="st17" d="M393.8,265.8c0,0-0.1,0-0.2,0.1c-15.1,15.1-15,39.4,0,54.5l27.4-27.4L393.8,265.8z"/>
			<circle class="st2" cx="478.4" cy="281.8" r="5.1"/>
		</g>
		<g>
			<path class="st17" d="M311.2,308.9c5.7,9.8,16.3,16.4,28.5,16.4c12.2,0,22.8-6.6,28.5-16.4c-5.7-9.8-16.4-16.4-28.5-16.4
				C327.5,292.5,316.9,299.1,311.2,308.9z"/>
			<path class="st17" d="M311.2,308.9c5.7,9.8,16.3,16.4,28.5,16.4c12.2,0,22.8-6.6,28.5-16.4c-5.7-9.8-16.4-16.4-28.5-16.4
				C327.5,292.5,316.9,299.1,311.2,308.9z"/>
			<polygon class="st17" points="311.8,308.8 292.9,319.7 292.9,297.9 			"/>
			<circle class="st2" cx="350" cy="305.6" r="5.1"/>
		</g>
		<g>
			<path class="st17" d="M426.2,210.9c5.7,9.8,16.3,16.4,28.5,16.4c12.2,0,22.8-6.6,28.5-16.4c-5.7-9.8-16.4-16.4-28.5-16.4
				C442.5,194.5,431.9,201.1,426.2,210.9z"/>
			<polygon class="st17" points="426.8,210.8 407.9,221.7 407.9,199.9 			"/>
			<circle class="st2" cx="465" cy="207.6" r="5.1"/>
		</g>
		<g>
			<path class="st17" d="M347.2,175.9c5.7,9.8,16.3,16.4,28.5,16.4c12.2,0,22.8-6.6,28.5-16.4c-5.7-9.8-16.4-16.4-28.5-16.4
				C363.5,159.5,352.9,166.1,347.2,175.9z"/>
			<polygon class="st17" points="347.8,175.8 328.9,186.7 328.9,164.9 			"/>
			<circle class="st2" cx="386" cy="172.6" r="5.1"/>
		</g>
		<g>
			<path class="st17" d="M266.2,239.9c5.7,9.8,16.3,16.4,28.5,16.4c12.2,0,22.8-6.6,28.5-16.4c-5.7-9.8-16.4-16.4-28.5-16.4
				C282.5,223.5,271.9,230.1,266.2,239.9z"/>
			<polygon class="st17" points="266.8,239.8 247.9,250.7 247.9,228.9 			"/>
			<circle class="st2" cx="305" cy="236.6" r="5.1"/>
		</g>
		<g>
			<path class="st17" d="M532.5,349.6c5.7,9.8,16.3,16.4,28.5,16.4c12.2,0,22.8-6.6,28.5-16.4c-5.7-9.8-16.4-16.4-28.5-16.4
				C548.9,333.1,538.2,339.7,532.5,349.6z"/>
			<path class="st17" d="M532.5,349.6c5.7,9.8,16.3,16.4,28.5,16.4c12.2,0,22.8-6.6,28.5-16.4c-5.7-9.8-16.4-16.4-28.5-16.4
				C548.9,333.1,538.2,339.7,532.5,349.6z"/>
			<polygon class="st17" points="533.1,349.5 514.2,360.4 514.2,338.6 			"/>
			<circle class="st2" cx="571.3" cy="346.3" r="5.1"/>
		</g>
		<g>
			<path class="st17" d="M550.5,295.6c5.7,9.8,16.3,16.4,28.5,16.4c12.2,0,22.8-6.6,28.5-16.4c-5.7-9.8-16.4-16.4-28.5-16.4
				C566.9,279.1,556.2,285.7,550.5,295.6z"/>
			<path class="st17" d="M550.5,295.6c5.7,9.8,16.3,16.4,28.5,16.4c12.2,0,22.8-6.6,28.5-16.4c-5.7-9.8-16.4-16.4-28.5-16.4
				C566.9,279.1,556.2,285.7,550.5,295.6z"/>
			<polygon class="st17" points="551.1,295.5 532.2,306.4 532.2,284.6 			"/>
			<circle class="st2" cx="589.3" cy="292.3" r="5.1"/>
		</g>
	</g>
	<g>
		<g>
			<path class="st15" d="M503,111.2c-5.7,9.8-16.3,16.4-28.5,16.4c-12.2,0-22.8-6.6-28.5-16.4c5.7-9.8,16.4-16.4,28.5-16.4
				C486.7,94.8,497.3,101.4,503,111.2z"/>
			<path class="st15" d="M503,111.2c-5.7,9.8-16.3,16.4-28.5,16.4c-12.2,0-22.8-6.6-28.5-16.4c5.7-9.8,16.4-16.4,28.5-16.4
				C486.7,94.8,497.3,101.4,503,111.2z"/>
			<polygon class="st15" points="502.4,111.2 521.3,122.1 521.3,100.2 			"/>
			<circle class="st2" cx="464.2" cy="108" r="5.1"/>
			<g>
				<path class="st15" d="M588.6,111.2c-5.7,9.8-16.3,16.4-28.5,16.4c-12.2,0-22.8-6.6-28.5-16.4c5.7-9.8,16.4-16.4,28.5-16.4
					C572.3,94.8,582.9,101.4,588.6,111.2z"/>
				<path class="st15" d="M588.6,111.2c-5.7,9.8-16.3,16.4-28.5,16.4c-12.2,0-22.8-6.6-28.5-16.4c5.7-9.8,16.4-16.4,28.5-16.4
					C572.3,94.8,582.9,101.4,588.6,111.2z"/>
				<polygon class="st15" points="588,111.2 606.9,122.1 606.9,100.2 				"/>
				<circle class="st2" cx="549.8" cy="108" r="5.1"/>
			</g>
		</g>
		<g>
			<path class="st15" d="M832.5,88c-30.6,22-68.1,35-108.6,35s-78-13-108.6-35c30.6-22,68.1-35,108.6-35S801.9,65.9,832.5,88z"/>
			<path class="st15" d="M832.5,88c-30.6,22-68.1,35-108.6,35s-78-13-108.6-35c30.6-22,68.1-35,108.6-35S801.9,65.9,832.5,88z"/>
			<polygon class="st15" points="830.6,87.9 858.9,104.2 858.9,71.5 			"/>
			<circle class="st2" cx="652" cy="86.5" r="5.1"/>
		</g>
		<g>
			<path class="st2" d="M229.1,88c-30.6,22-68.1,35-108.6,35s-78-13-108.6-35c30.6-22,68.1-35,108.6-35S198.6,65.9,229.1,88z"/>
			<polygon class="st2" points="227.3,87.9 255.6,104.2 255.6,71.5 			"/>
			<circle class="st15" cx="48.6" cy="86.5" r="5.1"/>
		</g>
		<g>
			<circle class="st2" cx="400.7" cy="55.1" r="46.8"/>
			<path class="st2" d="M473,27.8c0,0,0.1,0,0.2,0.1c15.1,15.1,15,39.4,0,54.5l-27.4-27.4L473,27.8z"/>
			<circle class="st15" cx="388.4" cy="43.8" r="5.1"/>
		</g>
		<g>
			<path class="st15" d="M555.6,70.9c-5.7,9.8-16.3,16.4-28.5,16.4c-12.2,0-22.8-6.6-28.5-16.4c5.7-9.8,16.4-16.4,28.5-16.4
				C539.3,54.5,549.9,61.1,555.6,70.9z"/>
			<path class="st2" d="M555.6,70.9c-5.7,9.8-16.3,16.4-28.5,16.4c-12.2,0-22.8-6.6-28.5-16.4c5.7-9.8,16.4-16.4,28.5-16.4
				C539.3,54.5,549.9,61.1,555.6,70.9z"/>
			<polygon class="st2" points="555,70.8 573.9,81.8 573.9,59.9 			"/>
			<circle class="st15" cx="516.8" cy="67.7" r="5.1"/>
		</g>
		<g>
			<path class="st15" d="M334.3,111.6c-5.7,9.8-16.3,16.4-28.5,16.4c-12.2,0-22.8-6.6-28.5-16.4c5.7-9.8,16.4-16.4,28.5-16.4
				C317.9,95.1,328.6,101.7,334.3,111.6z"/>
			<path class="st15" d="M334.3,111.6c-5.7,9.8-16.3,16.4-28.5,16.4c-12.2,0-22.8-6.6-28.5-16.4c5.7-9.8,16.4-16.4,28.5-16.4
				C317.9,95.1,328.6,101.7,334.3,111.6z"/>
			<polygon class="st15" points="333.7,111.5 352.6,122.4 352.6,100.6 			"/>
			<circle class="st2" cx="295.5" cy="108.3" r="5.1"/>
		</g>
		<g>
			<path class="st15" d="M316.3,57.6c-5.7,9.8-16.3,16.4-28.5,16.4c-12.2,0-22.8-6.6-28.5-16.4c5.7-9.8,16.4-16.4,28.5-16.4
				C299.9,41.1,310.6,47.7,316.3,57.6z"/>
			<path class="st2" d="M316.3,57.6c-5.7,9.8-16.3,16.4-28.5,16.4c-12.2,0-22.8-6.6-28.5-16.4c5.7-9.8,16.4-16.4,28.5-16.4
				C299.9,41.1,310.6,47.7,316.3,57.6z"/>
			<polygon class="st2" points="315.7,57.5 334.6,68.4 334.6,46.6 			"/>
			<circle class="st15" cx="277.5" cy="54.3" r="5.1"/>
		</g>
	</g>
	<g>
		<path class="st15" d="M1084.7,260c18.7-13.5,41.7-21.4,66.5-21.4c24.8,0,47.8,7.9,66.5,21.4c-18.7,13.5-41.7,21.4-66.5,21.4
			C1126.3,281.4,1103.4,273.5,1084.7,260z"/>
		<path class="st15" d="M1084.7,260c18.7-13.5,41.7-21.4,66.5-21.4c24.8,0,47.8,7.9,66.5,21.4c-18.7,13.5-41.7,21.4-66.5,21.4
			C1126.3,281.4,1103.4,273.5,1084.7,260z"/>
		<polygon class="st15" points="1085.8,260 1068.5,250 1068.5,270 		"/>
		<circle class="st2" cx="1195.2" cy="260.9" r="3.1"/>
	</g>
	<g class="st34">
		<rect x="134.6" y="-351.8" class="st35" width="1101.3" height="415.6"/>
		<text transform="matrix(1 0 0 1 175.4566 -318.9805)"><tspan x="0" y="0" class="st2 st36 st37">“With so many people using our site every day, it</tspan><tspan x="989" y="0" class="st2 st38 st37">’</tspan><tspan x="998.3" y="0" class="st2 st36 st37">s </tspan><tspan x="-15.7" y="54" class="st2 st36 st37">vital that our customer care advisors have the right </tspan><tspan x="-13.9" y="108" class="st2 st36 st37">tools to deal with enquiries quickly and effectively.”</tspan><tspan x="302.1" y="169" class="st2 st39 st40">–  Huu Anh Chu, Head of Customer Experience</tspan></text>
	</g>
</g>
<g id="Layer_3">
</g>
<g id="Layer_3_copy">
</g>
<g id="Layer_2">
</g>
<g id="Layer_11">
</g>
<g id="Layer_13">
</g>
<g id="NOTES" class="st90">
	<circle class="st91" cx="541.6" cy="102" r="159"/>
	<text transform="matrix(1 0 0 1 419.4305 85.1729)" class="st92"><tspan x="0" y="0" class="st93 st96 st97">Animation and movement of fish</tspan><tspan x="44.4" y="20" class="st93 st96 st97">would be great here.</tspan></text>
</g>
</svg>
